<?xml version="1.0" encoding="UTF-8" standalone="no" ?>
<!DOCTYPE svg PUBLIC "-//W3C//DTD SVG 1.1//EN" "http://www.w3.org/Graphics/SVG/1.1/DTD/svg11.dtd">
<svg xmlns="http://www.w3.org/2000/svg" xmlns:xlink="http://www.w3.org/1999/xlink" version="1.1" width="500" height="500" viewBox="0 0 500 500" xml:space="preserve">
<desc>Created with Fabric.js 3.6.6</desc>
<defs>
</defs>
<rect x="0" y="0" width="100%" height="100%" fill="rgba(255, 255, 255, 0)"></rect>
<g transform="matrix(1 0 0 1 3.08 3)"  >
<g style=""   >
		<g transform="matrix(1 0 0 1 -1.25 -0.5)"  >
<rect style="stroke: none; stroke-width: 1; stroke-dasharray: none; stroke-linecap: butt; stroke-dashoffset: 0; stroke-linejoin: miter; stroke-miterlimit: 4; fill: rgb(255,255,255); fill-rule: nonzero; opacity: 1;"  x="-0.5" y="-0.5" rx="0" ry="0" width="1" height="1" />
</g>
		<g transform="matrix(1 0 0 1 -0.25 -1.5)"  >
<rect style="stroke: none; stroke-width: 1; stroke-dasharray: none; stroke-linecap: butt; stroke-dashoffset: 0; stroke-linejoin: miter; stroke-miterlimit: 4; fill: rgb(255,255,255); fill-rule: nonzero; opacity: 1;"  x="-0.5" y="-0.5" rx="0" ry="0" width="1" height="1" />
</g>
		<g transform="matrix(1 0 0 1 -0.25 -0.5)"  >
<rect style="stroke: none; stroke-width: 1; stroke-dasharray: none; stroke-linecap: butt; stroke-dashoffset: 0; stroke-linejoin: miter; stroke-miterlimit: 4; fill: rgb(255,255,255); fill-rule: nonzero; opacity: 1;"  x="-1" y="-1" rx="0" ry="0" width="2" height="2" />
</g>
		<g transform="matrix(1 0 0 1 0.75 0.5)"  >
<rect style="stroke: none; stroke-width: 1; stroke-dasharray: none; stroke-linecap: butt; stroke-dashoffset: 0; stroke-linejoin: miter; stroke-miterlimit: 4; fill: rgb(255,255,255); fill-rule: nonzero; opacity: 1;"  x="-1" y="-1" rx="0" ry="0" width="2" height="2" />
</g>
		<g transform="matrix(1 0 0 1 1.75 -1.5)"  >
<rect style="stroke: none; stroke-width: 1; stroke-dasharray: none; stroke-linecap: butt; stroke-dashoffset: 0; stroke-linejoin: miter; stroke-miterlimit: 4; fill: rgb(255,255,255); fill-rule: nonzero; opacity: 1;"  x="-1" y="-1" rx="0" ry="0" width="2" height="2" />
</g>
		<g transform="matrix(1 0 0 1 0.75 1.5)"  >
<rect style="stroke: none; stroke-width: 1; stroke-dasharray: none; stroke-linecap: butt; stroke-dashoffset: 0; stroke-linejoin: miter; stroke-miterlimit: 4; fill: rgb(255,255,255); fill-rule: nonzero; opacity: 1;"  x="-1" y="-1" rx="0" ry="0" width="2" height="2" />
</g>
		<g transform="matrix(1 0 0 1 1.75 0.5)"  >
<rect style="stroke: none; stroke-width: 1; stroke-dasharray: none; stroke-linecap: butt; stroke-dashoffset: 0; stroke-linejoin: miter; stroke-miterlimit: 4; fill: rgb(255,255,255); fill-rule: nonzero; opacity: 1;"  x="-0.5" y="-0.5" rx="0" ry="0" width="1" height="1" />
</g>
		<g transform="matrix(1 0 0 1 -2.25 0.5)"  >
<rect style="stroke: none; stroke-width: 1; stroke-dasharray: none; stroke-linecap: butt; stroke-dashoffset: 0; stroke-linejoin: miter; stroke-miterlimit: 4; fill: rgb(255,255,255); fill-rule: nonzero; opacity: 1;"  x="-0.5" y="-0.5" rx="0" ry="0" width="1" height="1" />
</g>
		<g transform="matrix(1 0 0 1 -0.25 1.5)"  >
<rect style="stroke: none; stroke-width: 1; stroke-dasharray: none; stroke-linecap: butt; stroke-dashoffset: 0; stroke-linejoin: miter; stroke-miterlimit: 4; fill: rgb(255,255,255); fill-rule: nonzero; opacity: 1;"  x="-0.5" y="-0.5" rx="0" ry="0" width="1" height="1" />
</g>
		<g transform="matrix(1 0 0 1 0.75 -0.5)"  >
<rect style="stroke: none; stroke-width: 1; stroke-dasharray: none; stroke-linecap: butt; stroke-dashoffset: 0; stroke-linejoin: miter; stroke-miterlimit: 4; fill: rgb(255,255,255); fill-rule: nonzero; opacity: 1;"  x="-0.5" y="-0.5" rx="0" ry="0" width="1" height="1" />
</g>
		<g transform="matrix(1 0 0 1 -1.25 1.5)"  >
<rect style="stroke: none; stroke-width: 1; stroke-dasharray: none; stroke-linecap: butt; stroke-dashoffset: 0; stroke-linejoin: miter; stroke-miterlimit: 4; fill: rgb(255,255,255); fill-rule: nonzero; opacity: 1;"  x="-0.5" y="-0.5" rx="0" ry="0" width="1" height="1" />
</g>
		<g transform="matrix(1 0 0 1 1.75 1.5)"  >
<rect style="stroke: none; stroke-width: 1; stroke-dasharray: none; stroke-linecap: butt; stroke-dashoffset: 0; stroke-linejoin: miter; stroke-miterlimit: 4; fill: rgb(255,255,255); fill-rule: nonzero; opacity: 1;"  x="-0.5" y="-0.5" rx="0" ry="0" width="1" height="1" />
</g>
</g>
</g>
<g transform="matrix(1 0 0 1 140.12 181.82)"  >
<g style=""   >
		<g transform="matrix(1 0 0 1 3.28 -1.85)"  >
<path style="stroke: rgb(255,255,255); stroke-width: 0; stroke-dasharray: none; stroke-linecap: butt; stroke-dashoffset: 0; stroke-linejoin: round; stroke-miterlimit: 4; fill: rgb(255,255,255); fill-rule: nonzero; opacity: 1;" vector-effect="non-scaling-stroke"  transform=" translate(-323.91, -204.78)" d="M 323.9130434782609 114.78260869565219 L 271.7391304347826 123.47826086956523 L 215.21739130434784 158.69565217391306 L 191.30434782608697 202.60869565217394 L 213.9130434782609 251.73913043478262 L 271.7391304347826 288.26086956521743 L 345.21739130434787 294.7826086956522 L 401.304347826087 276.0869565217392 L 441.304347826087 239.13043478260872 L 456.5217391304348 206.5217391304348 L 433.47826086956525 163.91304347826087 L 395.6521739130435 132.60869565217394 L 354.34782608695656 118.2608695652174 L 323.9130434782609 114.78260869565219" stroke-linecap="round" />
</g>
		<g transform="matrix(4.41 0 0 4.41 0 0)"  >
<g style=""   >
		<g transform="matrix(1 0 0 1 0 0)"  >
<path style="stroke: none; stroke-width: 1; stroke-dasharray: none; stroke-linecap: butt; stroke-dashoffset: 0; stroke-linejoin: miter; stroke-miterlimit: 4; fill: rgb(255,203,87); fill-rule: nonzero; opacity: 1;"  transform=" translate(-32, -32)" d="M 21.286 37.383 c -0.261 -0.518 -0.488 -1.056 -0.673 -1.614 L 16 35 v -6 l 4.613 -0.769 c 0.185 -0.558 0.412 -1.096 0.673 -1.614 l -2.721 -3.809 l 4.243 -4.243 l 3.809 2.721 c 0.518 -0.261 1.056 -0.488 1.614 -0.673 L 29 16 h 6 l 0.769 4.613 c 0.558 0.185 1.096 0.412 1.614 0.673 l 3.809 -2.721 l 4.243 4.243 l -2.721 3.809 c 0.261 0.518 0.488 1.056 0.673 1.614 L 48 29 v 6 l -4.613 0.769 c -0.185 0.558 -0.412 1.096 -0.673 1.614 l 2.721 3.809 l -4.243 4.243 l -3.809 -2.721 c -0.518 0.261 -1.056 0.489 -1.614 0.673 L 35 48 h -6 l -0.769 -4.613 c -0.558 -0.185 -1.096 -0.412 -1.614 -0.673 l -3.809 2.721 l -4.243 -4.243 L 21.286 37.383 z" stroke-linecap="round" />
</g>
		<g transform="matrix(1 0 0 1 0 0)"  >
<path style="stroke: none; stroke-width: 1; stroke-dasharray: none; stroke-linecap: butt; stroke-dashoffset: 0; stroke-linejoin: miter; stroke-miterlimit: 4; fill: rgb(63,58,52); fill-rule: nonzero; opacity: 1;"  transform=" translate(-32, -32)" d="M 32 41 c 4.962 0 9 -4.037 9 -9 s -4.038 -9 -9 -9 s -9 4.037 -9 9 S 27.038 41 32 41 z M 31 32 c 0 -0.552 0.449 -1 1 -1 s 1 0.448 1 1 s -0.449 1 -1 1 S 31 32.552 31 32 z M 32 25 c 3.86 0 7 3.141 7 7 c 0 3.519 -2.613 6.432 -6 6.92 v -4.104 c 1.161 -0.414 2 -1.514 2 -2.816 c 0 -1.654 -1.346 -3 -3 -3 s -3 1.346 -3 3 c 0 1.302 0.839 2.402 2 2.816 v 4.104 c -3.387 -0.488 -6 -3.401 -6 -6.92 C 25 28.141 28.14 25 32 25 z" stroke-linecap="round" />
</g>
		<g transform="matrix(1 0 0 1 1.43 5.59)"  >
<path style="stroke: none; stroke-width: 1; stroke-dasharray: none; stroke-linecap: butt; stroke-dashoffset: 0; stroke-linejoin: miter; stroke-miterlimit: 4; fill: rgb(63,58,52); fill-rule: nonzero; opacity: 1;"  transform=" translate(-33.43, -37.58)" d="M 43.607 26.167 l -1.786 0.9 c 0.248 0.491 0.456 0.989 0.617 1.478 l 0.189 0.573 L 47 29.848 v 4.305 l -4.373 0.729 l -0.189 0.573 c -0.161 0.488 -0.369 0.986 -0.617 1.478 l -0.272 0.54 l 2.58 3.611 l -3.044 3.045 l -3.612 -2.58 l -0.539 0.271 c -0.493 0.248 -0.991 0.456 -1.479 0.617 l -0.573 0.189 L 34.153 47 h -4.306 l -0.729 -4.373 l -0.573 -0.189 c -0.488 -0.161 -0.986 -0.369 -1.479 -0.617 l -0.539 -0.271 l -3.612 2.58 l -3.644 -3.644 l -1.414 1.414 L 22.7 46.74 l 4.02 -2.871 c 0.207 0.093 0.415 0.18 0.622 0.26 L 28.153 49 h 7.694 l 0.812 -4.871 c 0.207 -0.08 0.415 -0.167 0.622 -0.26 l 4.02 2.871 l 5.441 -5.439 L 43.87 37.28 c 0.093 -0.207 0.18 -0.414 0.26 -0.622 L 49 35.848 v -7.695 l -4.87 -0.811 C 43.978 26.949 43.803 26.556 43.607 26.167 z" stroke-linecap="round" />
</g>
		<g transform="matrix(1 0 0 1 -1.43 -5.58)"  >
<path style="stroke: none; stroke-width: 1; stroke-dasharray: none; stroke-linecap: butt; stroke-dashoffset: 0; stroke-linejoin: miter; stroke-miterlimit: 4; fill: rgb(63,58,52); fill-rule: nonzero; opacity: 1;"  transform=" translate(-30.57, -26.42)" d="M 15 28.152 v 7.695 l 4.87 0.811 c 0.152 0.393 0.327 0.786 0.523 1.175 l 1.786 -0.9 c -0.248 -0.491 -0.456 -0.989 -0.617 -1.478 l -0.189 -0.573 L 17 34.152 v -4.305 l 4.373 -0.729 l 0.189 -0.573 c 0.161 -0.488 0.369 -0.986 0.617 -1.478 l 0.272 -0.54 l -2.58 -3.611 l 3.044 -3.045 l 3.612 2.58 l 0.54 -0.272 c 0.487 -0.246 0.984 -0.453 1.478 -0.616 l 0.573 -0.189 L 29.847 17 h 4.306 l 0.729 4.373 l 0.573 0.189 c 0.494 0.163 0.991 0.37 1.478 0.616 l 0.54 0.272 l 3.612 -2.58 l 3.644 3.644 l 1.414 -1.414 L 41.3 17.258 l -4.02 2.872 c -0.207 -0.093 -0.414 -0.179 -0.622 -0.26 L 35.847 15 h -7.694 l -0.812 4.87 c -0.208 0.081 -0.416 0.167 -0.622 0.26 l -4.02 -2.872 l -5.441 5.441 l 2.872 4.021 c -0.093 0.207 -0.18 0.414 -0.26 0.622 L 15 28.152 z" stroke-linecap="round" />
</g>
		<g transform="matrix(1 0 0 1 0 -12)"  >
<rect style="stroke: none; stroke-width: 1; stroke-dasharray: none; stroke-linecap: butt; stroke-dashoffset: 0; stroke-linejoin: miter; stroke-miterlimit: 4; fill: rgb(63,58,52); fill-rule: nonzero; opacity: 1;"  x="-1" y="-1" rx="0" ry="0" width="2" height="2" />
</g>
		<g transform="matrix(0.71 -0.71 0.71 0.71 -8.49 -8.49)"  >
<rect style="stroke: none; stroke-width: 1; stroke-dasharray: none; stroke-linecap: butt; stroke-dashoffset: 0; stroke-linejoin: miter; stroke-miterlimit: 4; fill: rgb(63,58,52); fill-rule: nonzero; opacity: 1;"  x="-1" y="-1" rx="0" ry="0" width="2" height="2" />
</g>
		<g transform="matrix(1 0 0 1 -12 0)"  >
<rect style="stroke: none; stroke-width: 1; stroke-dasharray: none; stroke-linecap: butt; stroke-dashoffset: 0; stroke-linejoin: miter; stroke-miterlimit: 4; fill: rgb(63,58,52); fill-rule: nonzero; opacity: 1;"  x="-1" y="-1" rx="0" ry="0" width="2" height="2" />
</g>
		<g transform="matrix(0.71 -0.71 0.71 0.71 -8.49 8.48)"  >
<rect style="stroke: none; stroke-width: 1; stroke-dasharray: none; stroke-linecap: butt; stroke-dashoffset: 0; stroke-linejoin: miter; stroke-miterlimit: 4; fill: rgb(63,58,52); fill-rule: nonzero; opacity: 1;"  x="-1" y="-1" rx="0" ry="0" width="2" height="2" />
</g>
		<g transform="matrix(1 0 0 1 0 12)"  >
<rect style="stroke: none; stroke-width: 1; stroke-dasharray: none; stroke-linecap: butt; stroke-dashoffset: 0; stroke-linejoin: miter; stroke-miterlimit: 4; fill: rgb(63,58,52); fill-rule: nonzero; opacity: 1;"  x="-1" y="-1" rx="0" ry="0" width="2" height="2" />
</g>
		<g transform="matrix(0.71 -0.71 0.71 0.71 8.48 8.49)"  >
<rect style="stroke: none; stroke-width: 1; stroke-dasharray: none; stroke-linecap: butt; stroke-dashoffset: 0; stroke-linejoin: miter; stroke-miterlimit: 4; fill: rgb(63,58,52); fill-rule: nonzero; opacity: 1;"  x="-1" y="-1" rx="0" ry="0" width="2" height="2" />
</g>
		<g transform="matrix(1 0 0 1 12 0)"  >
<rect style="stroke: none; stroke-width: 1; stroke-dasharray: none; stroke-linecap: butt; stroke-dashoffset: 0; stroke-linejoin: miter; stroke-miterlimit: 4; fill: rgb(63,58,52); fill-rule: nonzero; opacity: 1;"  x="-1" y="-1" rx="0" ry="0" width="2" height="2" />
</g>
		<g transform="matrix(0.71 -0.71 0.71 0.71 8.48 -8.48)"  >
<rect style="stroke: none; stroke-width: 1; stroke-dasharray: none; stroke-linecap: butt; stroke-dashoffset: 0; stroke-linejoin: miter; stroke-miterlimit: 4; fill: rgb(63,58,52); fill-rule: nonzero; opacity: 1;"  x="-1" y="-1" rx="0" ry="0" width="2" height="2" />
</g>
		<g transform="matrix(1 0 0 1 0 0)"  >
<path style="stroke: none; stroke-width: 1; stroke-dasharray: none; stroke-linecap: butt; stroke-dashoffset: 0; stroke-linejoin: miter; stroke-miterlimit: 4; fill: rgb(63,58,52); fill-rule: nonzero; opacity: 1;"  transform=" translate(-32, -32)" d="M 62.97 31.758 C 62.918 31.55 57.486 11 32 11 S 1.082 31.55 1.03 31.758 L 0.969 32 l 0.061 0.242 C 1.082 32.45 6.514 53 32 53 s 30.918 -20.55 30.97 -20.758 L 63.031 32 L 62.97 31.758 z M 3.038 32.005 c 0.522 -1.733 4.22 -12.446 16.649 -16.98 C 14.435 18.846 11 25.022 11 32 c 0 7.025 3.479 13.239 8.793 17.054 C 7.176 44.594 3.572 33.859 3.038 32.005 z M 32 13 c 10.477 0 19 8.523 19 19 s -8.523 19 -19 19 s -19 -8.523 -19 -19 S 21.523 13 32 13 z M 44.313 48.975 C 49.565 45.154 53 38.978 53 32 c 0 -7.025 -3.479 -13.239 -8.793 -17.054 c 12.617 4.46 16.22 15.195 16.754 17.049 C 60.44 33.729 56.742 44.441 44.313 48.975 z" stroke-linecap="round" />
</g>
		<g transform="matrix(1 0 0 1 -11.5 27)"  >
<path style="stroke: none; stroke-width: 1; stroke-dasharray: none; stroke-linecap: butt; stroke-dashoffset: 0; stroke-linejoin: miter; stroke-miterlimit: 4; fill: rgb(229,101,101); fill-rule: nonzero; opacity: 1;"  transform=" translate(-20.5, -59)" d="M 31 58 c 0 0.552 -0.449 1 -1 1 H 13.816 c -0.414 -1.161 -1.514 -2 -2.816 -2 c -1.654 0 -3 1.346 -3 3 s 1.346 3 3 3 c 1.302 0 2.402 -0.839 2.816 -2 H 30 c 1.654 0 3 -1.346 3 -3 v -3 h -2 V 58 z M 11 61 c -0.551 0 -1 -0.448 -1 -1 s 0.449 -1 1 -1 s 1 0.448 1 1 S 11.551 61 11 61 z" stroke-linecap="round" />
</g>
		<g transform="matrix(1 0 0 1 -24.5 21)"  >
<path style="stroke: none; stroke-width: 1; stroke-dasharray: none; stroke-linecap: butt; stroke-dashoffset: 0; stroke-linejoin: miter; stroke-miterlimit: 4; fill: rgb(229,101,101); fill-rule: nonzero; opacity: 1;"  transform=" translate(-7.5, -53)" d="M 11 54 c 1.654 0 3 -1.346 3 -3 v -1 h -2 v 1 c 0 0.552 -0.449 1 -1 1 H 6.816 C 6.402 50.839 5.302 50 4 50 c -1.654 0 -3 1.346 -3 3 s 1.346 3 3 3 c 1.302 0 2.402 -0.839 2.816 -2 H 11 z M 4 54 c -0.551 0 -1 -0.448 -1 -1 s 0.449 -1 1 -1 s 1 0.448 1 1 S 4.551 54 4 54 z" stroke-linecap="round" />
</g>
		<g transform="matrix(1 0 0 1 24.5 -21)"  >
<path style="stroke: none; stroke-width: 1; stroke-dasharray: none; stroke-linecap: butt; stroke-dashoffset: 0; stroke-linejoin: miter; stroke-miterlimit: 4; fill: rgb(229,101,101); fill-rule: nonzero; opacity: 1;"  transform=" translate(-56.5, -11)" d="M 60 8 c -1.302 0 -2.402 0.839 -2.816 2 H 53 c -1.654 0 -3 1.346 -3 3 v 1 h 2 v -1 c 0 -0.552 0.449 -1 1 -1 h 4.184 c 0.414 1.161 1.514 2 2.816 2 c 1.654 0 3 -1.346 3 -3 S 61.654 8 60 8 z M 60 12 c -0.551 0 -1 -0.448 -1 -1 s 0.449 -1 1 -1 s 1 0.448 1 1 S 60.551 12 60 12 z" stroke-linecap="round" />
</g>
		<g transform="matrix(1 0 0 1 11.5 -27)"  >
<path style="stroke: none; stroke-width: 1; stroke-dasharray: none; stroke-linecap: butt; stroke-dashoffset: 0; stroke-linejoin: miter; stroke-miterlimit: 4; fill: rgb(229,101,101); fill-rule: nonzero; opacity: 1;"  transform=" translate(-43.5, -5)" d="M 53 7 c 1.654 0 3 -1.346 3 -3 s -1.346 -3 -3 -3 c -1.302 0 -2.402 0.839 -2.816 2 H 34 c -1.654 0 -3 1.346 -3 3 v 3 h 2 V 6 c 0 -0.552 0.449 -1 1 -1 h 16.184 C 50.598 6.161 51.698 7 53 7 z M 53 3 c 0.551 0 1 0.448 1 1 s -0.449 1 -1 1 s -1 -0.448 -1 -1 S 52.449 3 53 3 z" stroke-linecap="round" />
</g>
</g>
</g>
</g>
</g>
</svg>